# xmcd
#
# Track frame offsets: 
#        150
#        11720
#        23609
#        37544
#        48217
#        58448
#        69554
#        78355
#        90088
#        101468
#        111001
#        124598
#        136233
#        147593
#        159836
#        171172
#        185408
#        198409
#        208271
#        225623
#        237014
#        247718
#        261664
#        272124
#        284852
#        297229
#        306441
#        318823
#        330565
#        339714
#        351886
#        360104
#
# Disc length: 5082 seconds
#
# Revision: 0
# Processed by: cddbd v1.5.2PL0 Copyright (c) Steve Scherf et al.
# Submitted via: ExactAudioCopy v0.99pb4
#
DISCID=cd13d820
DTITLE=Various Artist - Country and Western Hit Parade 1959
DYEAR=2011
DGENRE=Country
TTITLE0=Billy Grammer - Gotta Travel On
TTITLE1=Johnny Horton - When It's Springtime In Alaska (It's Fory Belo
TTITLE1=w)
TTITLE2=Johnny Cash - Don't Take Your Guns To Town
TTITLE3=Roy Acuff - So Many Times
TTITLE4=Don Gibson - Who Cares (For Me)?
TTITLE5=Carl Belew - Am I That Easy To Forget
TTITLE6=Webb Pierce - I Ain't Never
TTITLE7=Faron Young - Country Girl
TTITLE8=Stonewall Jackson - Waterloo
TTITLE9=Johnny Cash - I Got Stripes
TTITLE10=Ray Price - Hearaches By The Number
TTITLE11=Fankie Miller - Blackland Farmer
TTITLE12=Lester Flatt and Earl Scruggs - Cabin On The Hill
TTITLE13=Stonewall Jackson - Smoke Along The Track
TTITLE14=Johnny Horton - The Battle Of New Orleans
TTITLE15=Eddy Arnold - Tennesee Stud
TTITLE16=The Browns - The Three Bells
TTITLE17=Mac Wiseman - Jimmy Brown The Newsboy
TTITLE18=The Louvin Brothers - Knoxville Girl
TTITLE19=Bill Monroe - Dark As The Night, Blue As The Day
TTITLE20=Wilma Lee and Stoney Cooper - There's A Big Wheel
TTITLE21=Lefty Frizzell - Long Black Veil
TTITLE22=Don Gibson - Don't Tell Me Your Troubles
TTITLE23=George Jones - White Lightnin'
TTITLE24=Buck Owens - Under Your Spell Again
TTITLE25=Jimmie Skinner - Dark Hollow
TTITLE26=Ray Price - The Same Old Me
TTITLE27=Hank Snow - The Last Ride
TTITLE28=Jim Reeves - Home
TTITLE29=Kitty Wells - Amigo's Guitar
TTITLE30=Johnny Cash - Five Feet High And Rising
TTITLE31=Marty Robbins - El Paso
EXTD=
EXTT0=
EXTT1=
EXTT2=
EXTT3=
EXTT4=
EXTT5=
EXTT6=
EXTT7=
EXTT8=
EXTT9=
EXTT10=
EXTT11=
EXTT12=
EXTT13=
EXTT14=
EXTT15=
EXTT16=
EXTT17=
EXTT18=
EXTT19=
EXTT20=
EXTT21=
EXTT22=
EXTT23=
EXTT24=
EXTT25=
EXTT26=
EXTT27=
EXTT28=
EXTT29=
EXTT30=
EXTT31=
PLAYORDER=
